<?xml version="1.0" encoding="UTF-8"?>
<svg id="_图层_1" data-name="图层 1" xmlns="http://www.w3.org/2000/svg" viewBox="0 0 546.77 546.77">
  <defs>
    <style>
      .cls-1 {
        opacity: .42;
      }

      .cls-2 {
        fill: #1bd2e0;
      }
    </style>
  </defs>
  <g>
    <path class="cls-2" d="M156.21,448.41c1.95,1.34,3.48,2.84,4.58,4.48,1.1,1.65,1.92,3.57,2.47,5.77,.05,.27,0,.51-.12,.73-.13,.22-.33,.36-.6,.41l-4.13,.83c-.24,.07-.45,.04-.64-.09-.19-.13-.3-.32-.35-.59-.34-1.32-.89-2.54-1.67-3.68-.77-1.13-1.71-2.08-2.82-2.84-2.48-1.7-5.19-2.24-8.13-1.6-2.94,.64-5.28,2.22-7.02,4.75-1.12,1.63-1.78,3.41-1.98,5.34-.2,1.92,.1,3.77,.89,5.53,.79,1.76,2.01,3.22,3.67,4.36,2.16,1.49,4.7,2.12,7.6,1.9,.25-.02,.46,.04,.64,.18,.17,.14,.29,.31,.35,.5l.71,4.22c.05,.27,0,.5-.16,.7-.16,.2-.36,.31-.61,.34-4.4,.75-8.48-.18-12.25-2.77-2.59-1.78-4.54-4.05-5.88-6.83-1.33-2.78-1.89-5.69-1.67-8.72,.22-3.03,1.23-5.85,3.02-8.47,1.79-2.61,4.08-4.58,6.85-5.9,2.77-1.32,5.68-1.86,8.74-1.62,3.06,.24,5.89,1.25,8.5,3.05Z"/>
    <path class="cls-2" d="M153.46,486.21l18.76-26.85c.26-.41,.62-.51,1.09-.29l.7,.32c.35,.16,.53,.42,.54,.78l.04,25,.13,.06,19.12-16.1c.28-.22,.59-.25,.94-.09l.7,.32c.46,.21,.62,.55,.48,1.02l-8.44,31.64c-.08,.32-.23,.54-.46,.66-.23,.12-.49,.11-.78-.02l-3.96-1.84c-.17-.08-.31-.23-.42-.46-.11-.23-.14-.42-.1-.58l5.09-17.69-.13-.06-15.56,13.57c-.26,.27-.59,.31-.96,.14l-.78-.36c-.35-.16-.52-.44-.52-.82l.24-20.69-.13-.06-10.18,15.33c-.11,.16-.28,.27-.5,.33-.22,.06-.42,.04-.59-.04l-3.92-1.82c-.29-.13-.47-.33-.54-.6-.07-.26-.01-.53,.18-.79Z"/>
    <path class="cls-2" d="M206.29,508.17l11.94-30.5c.16-.46,.49-.64,.99-.54l.75,.15c.38,.08,.61,.29,.71,.63l5.9,24.29,.14,.03,14.81-20.14c.22-.28,.52-.39,.89-.31l.75,.15c.5,.1,.74,.39,.71,.88l-.79,32.74c0,.33-.1,.58-.3,.75-.2,.17-.45,.23-.77,.16l-4.28-.86c-.19-.04-.36-.15-.52-.35-.16-.19-.24-.37-.24-.54l.8-18.39-.14-.03-11.94,16.85c-.19,.32-.5,.44-.9,.36l-.85-.17c-.38-.08-.61-.3-.7-.68l-4.62-20.17-.14-.03-6.31,17.29c-.07,.18-.2,.33-.4,.43-.2,.11-.4,.14-.58,.1l-4.24-.85c-.31-.06-.54-.21-.67-.45-.13-.24-.14-.51,0-.81Z"/>
    <path class="cls-2" d="M249.38,517.07c-.35-.01-.6-.15-.75-.41-.15-.26-.16-.55-.02-.87l16-31.79c.2-.34,.48-.51,.83-.5l.48,.02c.38,.01,.65,.2,.8,.55l13.7,32.78c.12,.32,.09,.61-.08,.86-.17,.25-.43,.37-.78,.36l-4.17-.14c-.35-.01-.62-.09-.81-.24-.19-.15-.37-.4-.55-.76l-2.18-5.26-14.34-.48-2.52,5.1c-.28,.63-.75,.94-1.42,.91l-4.17-.14Zm10.65-11.12l9.64,.32-4.44-10.71h-.14s-5.05,10.39-5.05,10.39Z"/>
    <path class="cls-2" d="M287.6,516.63l-3.4-31.59c-.03-.25,.04-.48,.19-.67,.16-.19,.36-.3,.62-.33l13.65-1.47c2.86-.31,5.42,.43,7.67,2.21,2.25,1.79,3.53,4.09,3.84,6.93,.23,2.16-.2,4.17-1.31,6.01-1.11,1.84-2.68,3.31-4.72,4.39l7.84,11.42c.23,.3,.27,.61,.12,.93-.14,.32-.41,.5-.79,.54l-5.01,.54c-.38,.04-.65-.07-.81-.35l-7.71-11.96-5.3,.57,1.31,12.17c.03,.25-.04,.48-.19,.67-.16,.19-.36,.3-.62,.33l-4.39,.47c-.25,.03-.48-.04-.67-.19-.19-.16-.3-.36-.33-.62Zm4.39-18l7.78-.84c1.27-.14,2.33-.73,3.16-1.78,.83-1.05,1.18-2.24,1.04-3.57-.14-1.27-.72-2.3-1.76-3.1-1.04-.8-2.19-1.13-3.46-1l-7.78,.84,1.02,9.45Z"/>
    <path class="cls-2" d="M321.31,511.98l-6.71-31.06c-.05-.25-.01-.48,.12-.69s.33-.34,.58-.4l4.36-.94c.25-.05,.48,0,.69,.14,.21,.15,.34,.34,.39,.55l6.71,31.06c.05,.25,0,.48-.14,.69-.15,.21-.34,.34-.55,.39l-4.36,.94c-.25,.05-.48,.01-.69-.12s-.34-.33-.39-.58Z"/>
    <path class="cls-2" d="M338.32,508.31l-10.47-30.56c-.08-.24-.07-.47,.05-.68,.11-.21,.29-.35,.54-.44l1.13-.39,25.77,13.6,.05-.02-6.43-18.75c-.08-.24-.07-.47,.04-.7,.11-.22,.29-.38,.53-.46l4.18-1.43c.24-.08,.48-.06,.71,.06,.23,.12,.38,.29,.45,.5l10.47,30.56c.08,.24,.06,.47-.07,.68s-.3,.36-.51,.43l-1.09,.37-26.12-14.34-.04,.02,6.69,19.53c.08,.24,.07,.48-.04,.7-.11,.22-.29,.38-.53,.46l-4.13,1.42c-.24,.08-.48,.07-.7-.04s-.38-.29-.46-.53Z"/>
    <path class="cls-2" d="M375.8,494.21l-14.6-28.22c-.12-.23-.14-.46-.06-.7s.23-.42,.45-.53l17.35-8.98c.23-.12,.46-.13,.71-.04,.24,.09,.42,.23,.52,.43l1.81,3.5c.12,.23,.14,.46,.06,.7-.08,.24-.23,.42-.45,.53l-12.62,6.53,3.64,7.04,10.53-5.45c.23-.12,.46-.13,.71-.04,.24,.09,.42,.23,.52,.43l1.81,3.51c.12,.23,.14,.46,.06,.69-.08,.24-.23,.41-.46,.53l-10.53,5.45,3.86,7.46,12.62-6.53c.23-.12,.46-.13,.71-.04s.42,.23,.52,.43l1.81,3.5c.12,.23,.14,.46,.06,.7-.08,.24-.23,.42-.45,.53l-17.35,8.98c-.23,.12-.46,.14-.7,.06-.24-.08-.42-.23-.53-.45Z"/>
    <path class="cls-2" d="M402.95,479.44l-18.25-26.01c-.15-.21-.2-.44-.16-.68,.04-.24,.17-.44,.38-.59l11.24-7.89c2.36-1.65,4.95-2.25,7.79-1.77,2.83,.47,5.07,1.88,6.71,4.21,1.25,1.78,1.84,3.75,1.76,5.89s-.75,4.19-2,6.13l12.39,6.2c.34,.15,.53,.4,.56,.75,.03,.35-.11,.63-.43,.86l-4.13,2.9c-.31,.22-.61,.25-.88,.09l-12.53-6.74-4.36,3.06,7.03,10.02c.15,.21,.2,.44,.16,.68-.04,.25-.17,.44-.38,.59l-3.62,2.54c-.21,.15-.44,.2-.68,.16s-.44-.17-.59-.38Zm-4.86-17.87l6.4-4.5c1.05-.73,1.68-1.76,1.91-3.09s-.05-2.53-.82-3.63c-.73-1.04-1.75-1.66-3.04-1.86-1.29-.2-2.47,.07-3.51,.8l-6.4,4.5,5.46,7.78Z"/>
  </g>
  <g class="cls-1">
    <path class="cls-2" d="M380.13,388.88c1.69-1.57,3.35-3.17,4.96-4.8l40.13,10.93,29.53-51.13-29.62-29.39c7.25-26.9,7.28-55.4-.03-82.39h0s0-.01,0-.01h.03s29.76-29.54,29.76-29.54l-29.52-51.14-40.49,11.03h0c-20.32-20.5-44.97-34.27-71.14-41.23h0s0-.04,0-.04l-10.69-40.54h-59.05s-10.62,40.31-10.62,40.31c-24.38,6.32-47.59,18.6-67.36,36.92-1.5,1.39-2.96,2.8-4.39,4.23l-40.09-10.92-29.52,51.13,29.26,29.02c-7.5,27.18-7.61,56.03-.22,83.35l-29.18,28.95,29.52,51.14,39.57-10.78c20.58,20.89,45.67,34.86,72.27,41.78l10.49,39.78h59.05s10.5-39.86,10.5-39.86c24.2-6.36,47.23-18.6,66.87-36.8Zm-192.46-36.36c-43.71-47.17-40.91-120.84,6.25-164.55,47.17-43.71,120.84-40.91,164.55,6.25,43.71,47.17,40.91,120.84-6.25,164.55-47.17,43.71-120.84,40.91-164.55-6.25Z"/>
  </g>
  <path class="cls-2" d="M273.38,546.77c-73.02,0-141.68-28.44-193.31-80.07C28.44,415.06,0,346.41,0,273.38S28.44,131.71,80.07,80.07C131.71,28.44,200.36,0,273.38,0s141.68,28.44,193.31,80.07c51.64,51.64,80.07,120.29,80.07,193.31s-28.44,141.68-80.07,193.31c-51.63,51.64-120.29,80.07-193.31,80.07Zm0-532.77C130.36,14,14,130.36,14,273.38s116.36,259.38,259.38,259.38,259.38-116.36,259.38-259.38S416.41,14,273.38,14Z"/>
  <path class="cls-2" d="M151.62,152.3l-4.25-4.23c22.41-22.54,50.41-38.67,80.99-46.65l1.52,5.81c-29.54,7.71-56.6,23.3-78.25,45.08Z"/>
  <path class="cls-2" d="M101.87,320.03c-4.11-15.13-6.19-30.83-6.19-46.66s2.1-31.65,6.24-46.84l5.79,1.58c-4,14.68-6.03,29.9-6.03,45.26s2.01,30.47,5.98,45.09l-5.79,1.57Z"/>
  <path class="cls-2" d="M228.03,445.24c-30.77-8.1-58.89-24.44-81.33-47.25l4.28-4.21c21.68,22.04,48.86,37.83,78.58,45.66l-1.53,5.8Z"/>
  <path class="cls-2" d="M318.4,445.32l-1.52-5.8c29.62-7.74,56.75-23.39,78.43-45.26l4.26,4.22c-22.44,22.63-50.51,38.83-81.18,46.84Z"/>
  <path class="cls-2" d="M444.94,319.89l-5.79-1.57c3.94-14.58,5.94-29.7,5.94-44.95s-2.03-30.59-6.03-45.27l5.79-1.58c4.14,15.19,6.24,30.95,6.24,46.85s-2.07,31.43-6.15,46.52Z"/>
  <path class="cls-2" d="M395.01,152.17c-21.55-21.62-48.45-37.14-77.8-44.86l1.53-5.8c30.38,8,58.22,24.05,80.52,46.43l-4.25,4.24Z"/>
  <g>
    <circle class="cls-2" cx="273.08" cy="273.09" r="24.98" transform="translate(-113.12 273.08) rotate(-45)"/>
    <path class="cls-2" d="M223.44,273.09c0-27.41,22.22-49.63,49.63-49.63,3.37,0,6.67,.34,9.85,.98l29.81-29.81c-11.92-6.04-25.39-9.46-39.66-9.46-48.56,0-87.92,39.37-87.92,87.92,0,14.28,3.42,27.74,9.46,39.66l29.81-29.81c-.64-3.18-.98-6.48-.98-9.85Z"/>
    <path class="cls-2" d="M321.71,263.12c.66,3.22,1,6.55,1,9.97,0,27.41-22.22,49.63-49.63,49.63-3.41,0-6.75-.35-9.97-1l-29.79,29.79c11.94,6.07,25.44,9.51,39.76,9.51,48.56,0,87.92-39.37,87.92-87.92,0-14.31-3.44-27.81-9.51-39.76l-29.79,29.79Z"/>
  </g>
</svg>